#!OML:ASF F:\VICON\USERDATA\INSTALL\rory3\rory3.ASF
:FULLY-SPECIFIED
:DEGREES
61
root 4.0132697626157805 17.964411244276246 16.99007106634023 -3.4923717857851426 -0.9781640885474205 -3.724832250746194
lfemur -11.108905559410374 0.9321706377738028 -12.610630649263932
ltibia 64.13948530317799
lfoot -0.3372793886496641 -12.166156780880105
ltoes -0.9093815734977522
rfemur -10.252037237608072 6.926042873717472 31.678706688030672
rtibia 33.431664892897395
rfoot -8.165851808503705 -4.2996629017722245
rtoes 10.68846705613215
lowerback nan 0.1289839232641753 3.2143508255048028
upperback 0.22253830170114008 -0.06395003628866236 2.558715198816519
thorax -5.403268546111085 -0.09657394052301244 1.1515254214203985
lowerneck -16.438498462565114 -3.220096479628864 -1.9046847990380067
upperneck 19.28054916942805 -3.20833915430541 0.8687348971020794
head 8.090981190467748 -1.591435822758308 0.09544188192483974
lclavicle 3.2243523140073645e-15 1.1381200947064939e-15
lhumerus -34.30879754233715 -2.086899178792631 84.99126548608953
lradius 31.360020638573562
lwrist 7.699613576611697
lhand -26.020462394383678 26.207128246342048
lfingers nan
lthumb 0.5629146783345893 56.02500737885778
rclavicle 3.28266424399594e-17 4.044772022891877e-16
rhumerus -28.796613873425883 -15.924858142910743 -79.8265997489203
rradius 22.75362809516343
rwrist 7.999938467020052
rhand -17.973816363959624 nan
rfingers nan
rthumb 8.63770156437489 -5.771205224295098
62
root 3.9621662259234975 17.96806002425951 16.791153176172827 -3.6663320397311243 -1.5189838222890575 -4.352566697726429
lfemur -15.576994660096995 3.0559991755124805 -12.044615702762083
ltibia 66.49740406662981
lfoot -4.445566413092605 -9.457897873149088
ltoes -6.118031880569547
rfemur -7.440472134405685 6.846124934561525 32.46316381097752
rtibia 32.10703700133917
rfoot -10.185990445332715 -4.391005266891941
rtoes 9.81152385350884
lowerback nan 0.5063886548278855 3.6950451152616077
upperback 0.3613345582355621 0.4193978613893141 2.33614995240736
thorax -5.3068485223326265 0.2036749990674287 0.6931888811497676
lowerneck -16.363199851811824 -3.291884733204935 -1.8814716535362654
upperneck 19.003507579319734 -3.417792686501396 0.7966547670533495
head 8.184025543494872 -1.696230735742626 0.07590739381911624
lclavicle 1.4783860080765771e-15 -1.8178446771731062e-16
lhumerus -34.86818075922217 -2.0783599390131013 85.07548528278649
lradius 30.75793285716431
lwrist 6.854738003340419
lhand -26.589820226342546 24.880416939723457
lfingers nan
lthumb -0.22628731433350296 54.22781583125135
rclavicle -2.2345441363991634e-15 -1.73549454103402e-15
rhumerus -27.40915068384415 -13.893940478438667 -80.4886765106917
rradius 23.86705911967325
rwrist 7.197883218875055
rhand -17.962053313628623 nan
rfingers nan
rthumb 8.397979222036174 -6.2392435970578095
63
root 3.9515618015286584 17.968694148619562 18.653602908338634 -3.6117908748823977 -1.9081655875111134 -4.610089673244726
lfemur -19.75993260360116 4.616277267608185 -12.714646882824123
ltibia 67.14669929848998
lfoot -7.148085472316686 -7.203355330283889
ltoes -8.121647583831294
rfemur -5.710725427672405 6.591943274325095 32.3555498256254
rtibia 31.538329264624
rfoot -11.636438638457692 -4.421704233307508
rtoes 9.922166582692252
lowerback nan 0.797278446900529 3.5817038808451267
upperback 0.39203542734632113 1.0540005414828555 2.216833986636599
thorax -5.724230301105488 0.4729494726487159 0.12597685948143533
lowerneck -16.32293765364505 -3.4095760289505543 -1.9611399707637005
upperneck 19.030724317043624 -3.6126367164721436 0.9450675191343292
head 8.24127265390809 -1.7833578354079518 0.1579349749787053
lclavicle 1.094835754151718e-15 1.3764138823454985e-15
lhumerus -35.33979497751014 -1.7555794632266453 85.03448914490002
lradius 30.460381077819424
lwrist 6.12304163269645
lhand -27.167688397707938 23.498414991668373
lfingers nan
lthumb -0.44652041668533116 54.01215075774254
rclavicle 4.575405886450248e-16 4.58125362319728e-16
rhumerus -25.778359126546235 -12.206158256071765 -80.96852330082054
rradius 25.62420972907232
rwrist 5.4703674624379275
rhand -18.239588004525885 nan
rfingers nan
rthumb 8.29116852934352 -6.907687031586346
64
root 3.9242530343899436 17.93908539804718 18.542450589793596 -3.517355094573283 -2.605266104378826 -5.428466265753643
lfemur -22.828623069134796 5.732295562390814 -12.6265703442787
ltibia 64.39208656863505
lfoot -7.885920555125284 -3.8855296489174513
ltoes -8.8806414656923
rfemur -4.138936483577574 6.344362678443285 32.79891442843968
rtibia 31.612675577463897
rfoot -13.548893860622558 -4.251120591853066
rtoes 9.498140317605912
lowerback nan 1.0612307102244076 3.7509203635632336
upperback 0.40188365075116467 1.6395037875843688 2.1249572683475515
thorax -5.735779212345854 0.7496537447438831 -0.4675679546786746
lowerneck -16.281317286283947 -3.4867765119560867 -1.903352610833692
upperneck 19.452889478618097 -3.8861495819230236 0.9469178419963246
head 8.183720464723226 -1.9027066445870955 0.22644009285498026
lclavicle -1.4140213626562167e-15 -3.545604948756609e-16
lhumerus -36.08096935815664 -1.1344141458947306 84.8508886030239
lradius 30.85704332843378
lwrist 6.4809006452851605
lhand -26.838839814501174 23.89833780930378
lfingers nan
lthumb 0.6524621206737695 55.99155498512054
rclavicle 9.557479246361296e-16 1.7702323803590805e-15
rhumerus -24.48307797999255 -10.840338596812131 -81.27503928951491
rradius 27.75817053820207
rwrist 3.5610234210548586
rhand -18.150494695926636 nan
rfingers nan
rthumb 8.148664162110991 -7.8802684161770955
65
root 3.924090903090941 17.905981382047635 19.413686987547305 -3.1167061001400906 -3.1984147115366186 -6.066487887532246
lfemur -26.062491100639885 5.536888660008838 -12.890003022611054
ltibia 60.13754943977048
lfoot -9.028115011291085 -1.0397302116483853
ltoes -10.648419755827106
rfemur -3.0224323011726213 5.752987614163829 32.98452088076107
rtibia 32.06372334451149
rfoot -14.890975795334693 -4.078739438294623
rtoes 8.899186483900602
lowerback nan 1.1387456445373447 4.000566955369947
upperback 0.43844320948277005 2.041299220448151 2.0766511305504736
thorax -5.252247710942624 0.9502324897053583 -0.7752438917591831
lowerneck -16.46152216870245 -3.528739875459474 -1.843402743557887
upperneck 19.843143068372132 -4.0038265222438 1.1401282174756018
head 8.139821476948315 -1.9370066513457775 0.4042530297535197
lclavicle 1.1382742012180327e-16 -1.1126157752697137e-16
lhumerus -36.92169976397979 -0.39676687558937695 84.61767226874207
lradius 30.334797392969577
lwrist 7.0000723641858755
lhand -25.54635428485881 26.816944537422334
lfingers nan
lthumb 0.6698718502368228 56.13402428734324
rclavicle -1.1851850822387679e-15 -1.8633298073121395e-16
rhumerus -23.024278351295006 -9.99799842294132 -81.36950238126258
rradius 29.313259149952728
rwrist 2.00442314195916
rhand -18.341993488358938 nan
rfingers nan
rthumb 7.943664475831622 -6.6538801751697525
